<svg xmlns="http://www.w3.org/2000/svg" viewBox="0 0 4531 780" role="img" aria-label="Sahyatri">
<g fill="#E7AF24" transform="translate(0,740) scale(1,-1)">
<path transform="translate(0,0)" d="M332 -9Q313 -10 294 -10Q238 -10 190.0 4.0Q142 18 114.5 36.0Q87 54 65.0 77.5Q43 101 37.0 111.5Q31 122 27 129L136 178L135 179Q137 175 141.0 169.0Q145 163 160.0 150.0Q175 137 194.5 128.0Q214 119 248.0 112.5Q282 106 323 110Q359 112 386.0 120.0Q413 128 426.5 136.5Q440 145 449.0 157.5Q458 170 460.0 176.5Q462 183 464 193Q469 221 450 244Q412 289 311 289Q230 289 166.5 314.0Q103 339 64 385Q10 450 25 527Q31 558 45.0 585.0Q59 612 86.0 639.0Q113 666 161.0 684.0Q209 702 274.0 707.0Q339 712 394.0 699.5Q449 687 480.0 668.5Q511 650 536.0 624.5Q561 599 568.0 588.0Q575 577 578 569L470 520L471 518Q469 522 464.5 528.0Q460 534 445.0 547.0Q430 560 411.0 569.5Q392 579 358.0 585.0Q324 591 283 588Q247 585 220.0 577.5Q193 570 179.0 561.5Q165 553 156.5 540.5Q148 528 145.5 521.5Q143 515 142 505Q137 483 156 461Q200 408 311 408Q468 408 542 320Q596 254 581 171Q575 140 561.0 113.0Q547 86 519.5 59.0Q492 32 444.0 14.0Q396 -4 332 -9Z"/>
<path transform="translate(566,0)" d="M290 700H420L711 0H582H571Q537 56 479.5 89.0Q422 122 354.0 122.0Q286 122 228.5 89.0Q171 56 137 0H127H-2H-1H-2Q3 15 12 32ZM354 247Q424 247 490 222L355 547L220 222Q285 247 354 247Z"/>
<path transform="translate(1234,0)" d="M496 408V700H614V0H496V290H169V0H50V700H169V408Z"/>
<path transform="translate(1859,0)" d="M320 450 503 700H651L394 350L380 331V0H261V330L247 350L-10 700H137Z"/>
<path transform="translate(2460,0)" d="M290 700H420L711 0H582H571Q537 56 479.5 89.0Q422 122 354.0 122.0Q286 122 228.5 89.0Q171 56 137 0H127H-2H-1H-2Q3 15 12 32ZM354 247Q424 247 490 222L355 547L220 222Q285 247 354 247Z"/>
<path transform="translate(3128,0)" d="M605 581H362V0H243V581H-1V700H243H362H605Z"/>
<path transform="translate(3693,0)" d="M609 496Q609 427 567.5 372.5Q526 318 461 300L651 0H511L325 292H169V0H50V700H169H405Q489 700 549.0 640.0Q609 580 609 496ZM169 581V411H405Q440 411 465.0 436.0Q490 461 490.0 496.0Q490 531 465.0 556.0Q440 581 405 581Z"/>
<path transform="translate(4312,0)" d="M169 0H50V700H169Z"/>
</g>
</svg>